<svg xmlns="http://www.w3.org/2000/svg" fill="none" viewBox="0 0 90 17"><mask id="path-1-inside-1" fill="#fff"><path d="M12.9524 5.66669H13.7619C14.6207 5.66669 15.4443 6.00784 16.0516 6.6151C16.6589 7.22236 17 8.04599 17 8.90478C17 9.76358 16.6589 10.5872 16.0516 11.1945C15.4443 11.8017 14.6207 12.1429 13.7619 12.1429H12.9524"/></mask><path fill="#3F3F46" d="M13.7619 5.66669V4.66669V5.66669ZM12.9524 6.66669H13.7619V4.66669H12.9524V6.66669ZM13.7619 6.66669C14.3555 6.66669 14.9248 6.90249 15.3445 7.32221L16.7587 5.908C15.9639 5.1132 14.8859 4.66669 13.7619 4.66669L13.7619 6.66669ZM15.3445 7.32221C15.7642 7.74193 16 8.3112 16 8.90478H18C18 7.78077 17.5535 6.70279 16.7587 5.908L15.3445 7.32221ZM16 8.90478C16 9.49836 15.7642 10.0676 15.3445 10.4874L16.7587 11.9016C17.5535 11.1068 18 10.0288 18 8.90478H16ZM15.3445 10.4874C14.9248 10.9071 14.3555 11.1429 13.7619 11.1429V13.1429C14.8859 13.1429 15.9639 12.6964 16.7587 11.9016L15.3445 10.4874ZM13.7619 11.1429H12.9524V13.1429H13.7619V11.1429Z" mask="url(#path-1-inside-1)"/><path stroke="#3F3F46" d="M0.5 6.16669H12.4524V12.9524C12.4524 13.6786 12.1639 14.375 11.6504 14.8885C11.1369 15.402 10.4405 15.6905 9.71429 15.6905H3.2381C2.51191 15.6905 1.81546 15.402 1.30197 14.8885C0.788477 14.375 0.5 13.6786 0.5 12.9524V6.16669Z"/><mask id="path-4-inside-2" fill="#fff"><path d="M3.2381 0V2.42857Z"/></mask><path fill="#3F3F46" d="M2.8381 0V2.42857H3.6381V0H2.8381Z" mask="url(#path-4-inside-2)"/><mask id="path-6-inside-3" fill="#fff"><path d="M6.4762 0V2.42857Z"/></mask><path fill="#3F3F46" d="M6.0762 0V2.42857H6.8762V0H6.0762Z" mask="url(#path-6-inside-3)"/><mask id="path-8-inside-4" fill="#fff"><path d="M9.71429 0V2.42857Z"/></mask><path fill="#3F3F46" d="M9.31429 0V2.42857H10.1143V0H9.31429Z" mask="url(#path-8-inside-4)"/><path fill="#3F3F46" d="M20.72 6.168H26.624V7.104H24.176V14.568H23.168V7.104H20.72V6.168Z"/><path fill="#3F3F46" d="M28.4757 6.168H33.5637V7.104H29.4837V9.888H33.4917V10.824H29.4837V13.632H33.6357V14.568H28.4757V6.168Z"/><path fill="#3F3F46" d="M38.4153 13.8C38.7593 13.8 39.0513 13.744 39.2913 13.632C39.5393 13.512 39.7393 13.356 39.8913 13.164C40.0513 12.964 40.1673 12.74 40.2393 12.492C40.3193 12.236 40.3593 11.968 40.3593 11.688V11.544H41.3673V11.688C41.3673 12.112 41.3033 12.512 41.1753 12.888C41.0473 13.256 40.8593 13.58 40.6113 13.86C40.3633 14.132 40.0553 14.348 39.6873 14.508C39.3193 14.66 38.8953 14.736 38.4153 14.736C37.4873 14.736 36.7633 14.444 36.2433 13.86C35.7233 13.276 35.4633 12.424 35.4633 11.304V9.432C35.4633 8.344 35.7233 7.5 36.2433 6.9C36.7633 6.3 37.4873 6 38.4153 6C38.8953 6 39.3193 6.08 39.6873 6.24C40.0553 6.392 40.3633 6.608 40.6113 6.888C40.8593 7.16 41.0473 7.484 41.1753 7.86C41.3033 8.228 41.3673 8.624 41.3673 9.048V9.192H40.3593V9.048C40.3513 8.776 40.3073 8.512 40.2273 8.256C40.1553 8 40.0393 7.776 39.8793 7.584C39.7273 7.384 39.5313 7.228 39.2913 7.116C39.0513 6.996 38.7593 6.936 38.4153 6.936C37.7673 6.936 37.2793 7.172 36.9513 7.644C36.6313 8.116 36.4713 8.736 36.4713 9.504V11.232C36.4713 12.056 36.6313 12.692 36.9513 13.14C37.2793 13.58 37.7673 13.8 38.4153 13.8Z"/><path fill="#3F3F46" d="M42.919 6.168H43.927V9.888H47.503V6.168H48.511V14.568H47.503V10.824H43.927V14.568H42.919V6.168Z"/><path fill="#3F3F46" d="M53.876 6.16803H56.636C57.676 6.16803 58.436 6.41603 58.916 6.91203C59.396 7.40803 59.636 8.20003 59.636 9.28803V11.448C59.636 12.536 59.396 13.328 58.916 13.824C58.436 14.32 57.676 14.568 56.636 14.568H53.876V13.62H54.596V7.10403H53.876V6.16803ZM56.492 13.632C56.86 13.632 57.176 13.596 57.44 13.524C57.712 13.452 57.936 13.332 58.112 13.164C58.288 12.988 58.416 12.756 58.496 12.468C58.584 12.18 58.628 11.816 58.628 11.376V9.36003C58.628 8.92003 58.584 8.55603 58.496 8.26803C58.416 7.98003 58.288 7.75203 58.112 7.58403C57.936 7.40803 57.712 7.28403 57.44 7.21203C57.176 7.14003 56.86 7.10403 56.492 7.10403H55.604V13.632H56.492Z"/><path fill="#3F3F46" d="M61.3557 6.16803H66.6837V7.10403H64.5237V13.632H66.6837V14.568H61.3557V13.632H63.5157V7.10403H61.3557V6.16803Z"/><path fill="#3F3F46" d="M73.1673 12.48H69.5673L68.9553 14.568H67.8753L70.4193 6.16803H72.3153L74.8593 14.568H73.7793L73.1673 12.48ZM71.2953 6.60003L69.8433 11.544H72.8913L71.4393 6.60003H71.2953Z"/><path fill="#3F3F46" d="M81.343 14.568H80.335V11.76C80.335 11.552 80.287 11.392 80.191 11.28C80.095 11.168 79.927 11.112 79.687 11.112H77.071V14.568H76.063V6.16803H79.063C79.495 6.16803 79.871 6.23203 80.191 6.36003C80.511 6.48003 80.775 6.64403 80.983 6.85203C81.199 7.06003 81.359 7.30403 81.463 7.58403C81.575 7.85603 81.631 8.14403 81.631 8.44803V8.80803C81.631 9.12003 81.543 9.43203 81.367 9.74403C81.199 10.056 80.935 10.296 80.575 10.464V10.608C80.815 10.648 81.003 10.744 81.139 10.896C81.275 11.048 81.343 11.264 81.343 11.544V14.568ZM77.071 10.176H78.943C79.511 10.176 79.931 10.056 80.203 9.81603C80.483 9.56803 80.623 9.20803 80.623 8.73603V8.52003C80.623 8.09603 80.483 7.75603 80.203 7.50003C79.931 7.23603 79.511 7.10403 78.943 7.10403H77.071V10.176Z"/><path fill="#3F3F46" d="M85.5586 11.616H85.3426L82.7146 6.16803H83.8426L85.9906 10.752H86.1346L88.2826 6.16803H89.4106L86.7826 11.616H86.5666V14.568H85.5586V11.616Z"/></svg>