<svg xmlns="http://www.w3.org/2000/svg" width="17" height="17" fill="none" viewBox="0 0 17 17"><mask id="path-1-inside-1" fill="#fff"><path d="M12.9524 5.66669H13.7619C14.6207 5.66669 15.4443 6.00784 16.0516 6.6151C16.6589 7.22236 17 8.04599 17 8.90478C17 9.76358 16.6589 10.5872 16.0516 11.1945C15.4443 11.8017 14.6207 12.1429 13.7619 12.1429H12.9524"/></mask><path fill="#fff" d="M13.7619 5.66669V4.66669V5.66669ZM12.9524 6.66669H13.7619V4.66669H12.9524V6.66669ZM13.7619 6.66669C14.3555 6.66669 14.9248 6.90249 15.3445 7.32221L16.7587 5.908C15.9639 5.1132 14.8859 4.66669 13.7619 4.66669L13.7619 6.66669ZM15.3445 7.32221C15.7642 7.74193 16 8.3112 16 8.90478H18C18 7.78077 17.5535 6.70279 16.7587 5.908L15.3445 7.32221ZM16 8.90478C16 9.49836 15.7642 10.0676 15.3445 10.4874L16.7587 11.9016C17.5535 11.1068 18 10.0288 18 8.90478H16ZM15.3445 10.4874C14.9248 10.9071 14.3555 11.1429 13.7619 11.1429V13.1429C14.8859 13.1429 15.9639 12.6964 16.7587 11.9016L15.3445 10.4874ZM13.7619 11.1429H12.9524V13.1429H13.7619V11.1429Z" mask="url(#path-1-inside-1)"/><path stroke="#fff" d="M0.5 6.16669H12.4524V12.9524C12.4524 13.6786 12.1639 14.375 11.6504 14.8885C11.1369 15.402 10.4405 15.6905 9.71429 15.6905H3.2381C2.51191 15.6905 1.81546 15.402 1.30197 14.8885C0.788477 14.375 0.5 13.6786 0.5 12.9524V6.16669Z"/><mask id="path-4-inside-2" fill="#fff"><path d="M3.2381 0V2.42857Z"/></mask><path fill="#fff" d="M2.8381 0V2.42857H3.6381V0H2.8381Z" mask="url(#path-4-inside-2)"/><mask id="path-6-inside-3" fill="#fff"><path d="M6.4762 0V2.42857Z"/></mask><path fill="#fff" d="M6.0762 0V2.42857H6.8762V0H6.0762Z" mask="url(#path-6-inside-3)"/><mask id="path-8-inside-4" fill="#fff"><path d="M9.71429 0V2.42857Z"/></mask><path fill="#fff" d="M9.31429 0V2.42857H10.1143V0H9.31429Z" mask="url(#path-8-inside-4)"/></svg>