<svg xmlns="http://www.w3.org/2000/svg" fill="none" viewBox="0 0 69 9"><path fill="#3F3F46" d="M0 0.168H5.904V1.104H3.456V8.568H2.448V1.104H0V0.168Z"/><path fill="#3F3F46" d="M7.75566 0.168H12.8437V1.104H8.76366V3.888H12.7717V4.824H8.76366V7.632H12.9157V8.568H7.75566V0.168Z"/><path fill="#3F3F46" d="M17.6953 7.8C18.0393 7.8 18.3313 7.744 18.5713 7.632C18.8193 7.512 19.0193 7.356 19.1713 7.164C19.3313 6.964 19.4473 6.74 19.5193 6.492C19.5993 6.236 19.6393 5.968 19.6393 5.688V5.544H20.6473V5.688C20.6473 6.112 20.5833 6.512 20.4553 6.888C20.3273 7.256 20.1393 7.58 19.8913 7.86C19.6433 8.132 19.3353 8.348 18.9673 8.508C18.5993 8.66 18.1753 8.736 17.6953 8.736C16.7673 8.736 16.0433 8.444 15.5233 7.86C15.0033 7.276 14.7433 6.424 14.7433 5.304V3.432C14.7433 2.344 15.0033 1.5 15.5233 0.9C16.0433 0.3 16.7673 0 17.6953 0C18.1753 0 18.5993 0.0800004 18.9673 0.240001C19.3353 0.392001 19.6433 0.608001 19.8913 0.888C20.1393 1.16 20.3273 1.484 20.4553 1.86C20.5833 2.228 20.6473 2.624 20.6473 3.048V3.192H19.6393V3.048C19.6313 2.776 19.5873 2.512 19.5073 2.256C19.4353 2 19.3193 1.776 19.1593 1.584C19.0073 1.384 18.8113 1.228 18.5713 1.116C18.3313 0.996 18.0393 0.936 17.6953 0.936C17.0473 0.936 16.5593 1.172 16.2313 1.644C15.9113 2.116 15.7513 2.736 15.7513 3.504V5.232C15.7513 6.056 15.9113 6.692 16.2313 7.14C16.5593 7.58 17.0473 7.8 17.6953 7.8Z"/><path fill="#3F3F46" d="M22.199 0.168H23.207V3.888H26.783V0.168H27.791V8.568H26.783V4.824H23.207V8.568H22.199V0.168Z"/><path fill="#3F3F46" d="M33.156 0.16803H35.916C36.956 0.16803 37.716 0.41603 38.196 0.91203C38.676 1.40803 38.916 2.20003 38.916 3.28803V5.44803C38.916 6.53603 38.676 7.32803 38.196 7.82403C37.716 8.32003 36.956 8.56803 35.916 8.56803H33.156V7.62003H33.876V1.10403H33.156V0.16803ZM35.772 7.63203C36.14 7.63203 36.456 7.59603 36.72 7.52403C36.992 7.45203 37.216 7.33203 37.392 7.16403C37.568 6.98803 37.696 6.75603 37.776 6.46803C37.864 6.18003 37.908 5.81603 37.908 5.37603V3.36003C37.908 2.92003 37.864 2.55603 37.776 2.26803C37.696 1.98003 37.568 1.75203 37.392 1.58403C37.216 1.40803 36.992 1.28403 36.72 1.21203C36.456 1.14003 36.14 1.10403 35.772 1.10403H34.884V7.63203H35.772Z"/><path fill="#3F3F46" d="M40.6357 0.16803H45.9637V1.10403H43.8037V7.63203H45.9637V8.56803H40.6357V7.63203H42.7957V1.10403H40.6357V0.16803Z"/><path fill="#3F3F46" d="M52.4473 6.48003H48.8473L48.2353 8.56803H47.1553L49.6993 0.16803H51.5953L54.1393 8.56803H53.0593L52.4473 6.48003ZM50.5753 0.60003L49.1233 5.54403H52.1713L50.7193 0.60003H50.5753Z"/><path fill="#3F3F46" d="M60.623 8.56803H59.615V5.76003C59.615 5.55203 59.567 5.39203 59.471 5.28003C59.375 5.16803 59.207 5.11203 58.967 5.11203H56.351V8.56803H55.343V0.16803H58.343C58.775 0.16803 59.151 0.23203 59.471 0.36003C59.791 0.48003 60.055 0.64403 60.263 0.85203C60.479 1.06003 60.639 1.30403 60.743 1.58403C60.855 1.85603 60.911 2.14403 60.911 2.44803V2.80803C60.911 3.12003 60.823 3.43203 60.647 3.74403C60.479 4.05603 60.215 4.29603 59.855 4.46403V4.60803C60.095 4.64803 60.283 4.74403 60.419 4.89603C60.555 5.04803 60.623 5.26403 60.623 5.54403V8.56803ZM56.351 4.17603H58.223C58.791 4.17603 59.211 4.05603 59.483 3.81603C59.763 3.56803 59.903 3.20803 59.903 2.73603V2.52003C59.903 2.09603 59.763 1.75603 59.483 1.50003C59.211 1.23603 58.791 1.10403 58.223 1.10403H56.351V4.17603Z"/><path fill="#3F3F46" d="M64.8386 5.61603H64.6226L61.9946 0.16803H63.1226L65.2706 4.75203H65.4146L67.5626 0.16803H68.6906L66.0626 5.61603H65.8466V8.56803H64.8386V5.61603Z"/></svg>