<svg
width='240'
height='242'
viewBox='0 0 240 242'
fill='none'
xmlns='http://www.w3.org/2000/svg'
>
<path
d='M224.608 171.852C229.488 132.022 205.858 79.0796 181.353 57.224C137.127 17.7534 100.383 25.3866 71.8076 39.5242C43.2322 53.6619 39.1416 100.85 19.4128 122.204C-0.315975 143.557 -11.5504 172.276 18.395 200.871C48.3405 229.466 72.4861 214.93 103.789 213.123C135.091 211.316 176.591 225.584 199.04 213.169C214.73 204.505 222.455 189.46 224.608 171.852Z'
fill='#58D4E1'
/>
<path
opacity='0.7'
d='M224.608 171.852C229.488 132.022 205.858 79.0796 181.353 57.224C137.127 17.7534 100.383 25.3866 71.8076 39.5242C43.2322 53.6619 39.1416 100.85 19.4128 122.204C-0.315975 143.557 -11.5504 172.276 18.395 200.871C48.3405 229.466 72.4861 214.93 103.789 213.123C135.091 211.316 176.591 225.584 199.04 213.169C214.73 204.505 222.455 189.46 224.608 171.852Z'
fill='white'
/>
<path
d="M100.749 170.45V23.6973"
stroke="#263238"
stroke-linecap="round"
stroke-linejoin="round"
/>
<path
d="M5.35352 171.904H97.9235L238.563 217.299"
stroke="#263238"
stroke-linecap="round"
stroke-linejoin="round"
/>
<path
d="M47.5053 168.46H41.1118V62.7305H54.3099L48.6144 42.1732H31.5214L25.8259 62.7305H39.0241V168.46H32.6109C30.9711 168.461 29.3973 169.105 28.2274 170.255C27.0576 171.404 26.3851 172.966 26.3543 174.605C26.3543 174.605 26.3543 174.638 26.3543 174.651C26.3543 174.651 26.3543 174.69 26.3543 174.703C26.5435 176.178 32.5979 177.365 40.0549 177.365C47.5119 177.365 53.5662 176.178 53.7554 174.703C53.7502 173.048 53.0899 171.462 51.9187 170.292C50.7475 169.122 49.1608 168.463 47.5053 168.46V168.46Z"
fill="#263238"
/>
<path
class="fill-current fill-[#263238] dark:fill-[#58D4E1]"
d="M132.703 16.4229V140.915L226.435 156.338V1L132.703 16.4229ZM224.001 52.0704L176.375 54.7713V11.5168L224.001 3.93583V52.0704ZM176.375 59.3186L224.001 57.133V100.622L176.375 98.3978V59.3186ZM172.513 98.2151L134.276 96.434V61.2497L172.48 59.5013L172.513 98.2151ZM172.513 12.1301V55.0062L134.276 57.1526V18.2105L172.513 12.1301ZM134.276 100.531L172.48 102.73V145.208L134.276 139.127V100.531ZM176.343 145.821V102.952L223.968 105.692V153.402L176.343 145.821Z"
stroke-linecap="round"
stroke-linejoin="round"
/>
<path
d="M100.377 232.428C141.795 232.428 175.371 221.968 175.371 209.065C175.371 196.162 141.795 185.702 100.377 185.702C58.9585 185.702 25.3824 196.162 25.3824 209.065C25.3824 221.968 58.9585 232.428 100.377 232.428Z"
fill="#58D4E1"
/>
<path
opacity="0.5"
d="M100.377 232.428C141.795 232.428 175.371 221.968 175.371 209.065C175.371 196.162 141.795 185.702 100.377 185.702C58.9585 185.702 25.3824 196.162 25.3824 209.065C25.3824 221.968 58.9585 232.428 100.377 232.428Z"
fill="white"
/>
<path
d="M94.0418 106.05C94.0418 106.05 77.0466 104.034 65.8643 112.757C54.6821 121.48 45.0656 157.929 45.2875 175.388C45.5093 192.846 52.0007 201.556 68.3239 208.706C84.6471 215.857 115.056 213.182 132.051 207.813C149.046 202.443 154.637 183.673 154.415 173.6C154.194 163.527 143.011 151.908 139.208 149.461C135.404 147.015 124.672 141.861 119.309 133.804C113.947 125.746 106.111 108.288 94.0418 106.05Z"
fill="#58D4E1"
/>
<path
opacity="0.13"
d="M135.169 206.606C128.743 205.738 121.123 203.996 115.356 200.493C103.175 193.101 100.135 179.179 95.7837 173.96C91.4322 168.74 83.6033 169.177 80.126 163.521C76.6486 157.865 82.2985 116.117 72.2971 113.508C70.2675 112.921 68.1661 112.621 66.0535 112.614C65.9948 112.666 65.9231 112.705 65.8643 112.757C54.6821 121.48 45.0656 157.93 45.2875 175.388C45.5093 192.847 52.0007 201.556 68.3239 208.707C84.6471 215.857 115.056 213.182 132.051 207.813C133.115 207.476 134.156 207.073 135.169 206.606Z"
fill="black"
/>
<path
d="M94.0418 106.05C94.0418 106.05 77.0466 104.034 65.8643 112.757C54.6821 121.48 45.0656 157.929 45.2875 175.388C45.5093 192.846 52.0007 201.556 68.3239 208.706C84.6471 215.857 115.056 213.182 132.051 207.813C149.046 202.443 154.637 183.673 154.415 173.6C154.194 163.527 143.011 151.908 139.208 149.461C135.404 147.015 124.672 141.861 119.309 133.804C113.947 125.746 106.111 108.288 94.0418 106.05Z"
stroke="#263238"
stroke-linecap="round"
stroke-linejoin="round"
/>
<path
d="M87.348 113.931C87.348 113.931 76.2571 116.052 74.2999 118.009C72.3426 119.966 64.1876 150.629 64.1876 150.629C66.4549 150.077 68.8333 150.19 71.0378 150.955C74.2999 152.26 74.6261 155.685 74.9523 157.316C75.2141 159.264 75.3774 161.224 75.4416 163.188C75.4416 163.188 108.408 160.246 115.421 158.621C122.434 156.997 133.108 156.24 133.108 156.24C133.108 156.24 115.075 115.569 112.303 114.101C109.53 112.633 97.9496 112.47 96.3186 112.796C94.6876 113.122 87.348 113.931 87.348 113.931Z"
fill="#263238"
stroke="#263238"
stroke-linecap="round"
stroke-linejoin="round"
/>
<path
d="M76.4203 151.607L79.1931 128.936"
stroke="white"
stroke-linecap="round"
stroke-linejoin="round"
/>
<path
d="M78.5406 134.972L82.2919 130.078"
stroke="white"
stroke-linecap="round"
stroke-linejoin="round"
/>
<path
d="M89.7946 137.907C89.7946 137.907 100.396 134.482 107.41 134.482"
stroke="white"
stroke-linecap="round"
stroke-linejoin="round"
/>
<path
d="M99.8025 128.559L99.0914 133.993C99.0914 133.993 100.885 133.993 101.049 134.809C101.06 135.111 101.008 135.412 100.895 135.693C100.783 135.974 100.613 136.228 100.396 136.44C100.396 136.44 105.452 139.212 106.105 142.474"
stroke="white"
stroke-linecap="round"
stroke-linejoin="round"
/>
<path
d="M93.435 107.851C93.435 107.851 87.348 109.808 86.4738 111.328C85.5996 112.849 86.2585 123.509 86.2585 124.814C86.2585 126.118 87.0218 124.05 87.6742 122.53C88.3266 121.01 90.61 118.72 91.3668 118.942C92.1236 119.164 92.5673 120.025 92.5673 121.441C92.5673 122.856 94.3027 124.814 95.8293 125.897C97.3559 126.98 98.7651 128.076 98.7651 128.076C98.7651 128.076 101.916 123.509 102.68 122.308C103.443 121.108 103.332 118.616 103.436 117.742C103.541 116.867 105.504 120.136 105.942 119.268C106.379 118.401 104.963 117.637 103.436 115.243C101.91 112.849 102.353 110.35 100.07 108.608C97.7865 106.866 95.1769 107.407 93.435 107.851Z"
fill="white"
/>
<path
d="M86.474 111.322C85.8999 112.339 85.9912 117.415 86.1217 121.108C87.5113 119.32 90.3754 115.941 92.0325 116.58C94.1463 117.395 94.9553 123.404 94.9553 123.404L93.5265 107.851H93.4352C93.4352 107.851 87.3482 109.808 86.474 111.322Z"
fill="#58D4E1"
/>
<path
opacity="0.5"
d="M86.474 111.322C85.8999 112.339 85.9912 117.415 86.1217 121.108C87.5113 119.32 90.3754 115.941 92.0325 116.58C94.1463 117.395 94.9553 123.404 94.9553 123.404L93.5265 107.851H93.4352C93.4352 107.851 87.3482 109.808 86.474 111.322Z"
fill="white"
/>
<path
d="M93.435 107.851C93.435 107.851 87.348 109.808 86.4738 111.328C85.5996 112.849 86.2585 123.509 86.2585 124.814C86.2585 126.118 87.0218 124.05 87.6742 122.53C88.3266 121.01 90.61 118.72 91.3668 118.942C92.1236 119.164 92.5673 120.025 92.5673 121.441C92.5673 122.856 94.3027 124.814 95.8293 125.897C97.3559 126.98 98.7651 128.076 98.7651 128.076C98.7651 128.076 101.916 123.509 102.68 122.308C103.443 121.108 103.332 118.616 103.436 117.742C103.541 116.867 105.504 120.136 105.942 119.268C106.379 118.401 104.963 117.637 103.436 115.243C101.91 112.849 102.353 110.35 100.07 108.608C97.7865 106.866 95.1769 107.407 93.435 107.851Z"
stroke="#263238"
stroke-linecap="round"
stroke-linejoin="round"
/>
<path
d="M79.0298 151.934C79.0298 151.934 75.2785 146.552 70.7116 146.063C66.1448 145.573 60.5993 149.325 60.4362 150.629C60.2731 151.934 59.1314 158.948 59.9469 159.926C60.7624 160.905 63.8613 161.72 69.8961 159.763C75.9309 157.806 78.3774 155.359 79.0298 151.934Z"
fill="white"
/>
<path
d="M63.77 159.756C63.77 159.756 62.4652 156.025 63.1176 154.726C63.77 153.428 66.3796 151.464 67.9911 149.507C69.6025 147.55 64.1875 150.61 63.9266 149.507C63.7243 148.62 66.7907 146.845 67.9976 146.186C64.2006 146.917 60.5667 149.559 60.4362 150.61C60.2731 151.914 59.1314 158.928 59.9469 159.906C60.3644 160.409 61.4018 160.872 63.1306 160.931C63.5221 160.259 63.77 159.756 63.77 159.756Z"
fill="#58D4E1"
/>
<path
opacity="0.5"
d="M63.77 159.756C63.77 159.756 62.4652 156.025 63.1176 154.726C63.77 153.428 66.3796 151.464 67.9911 149.507C69.6025 147.55 64.1875 150.61 63.9266 149.507C63.7243 148.62 66.7907 146.845 67.9976 146.186C64.2006 146.917 60.5667 149.559 60.4362 150.61C60.2731 151.914 59.1314 158.928 59.9469 159.906C60.3644 160.409 61.4018 160.872 63.1306 160.931C63.5221 160.259 63.77 159.756 63.77 159.756Z"
fill="white"
/>
<path
d="M79.0298 151.934C79.0298 151.934 75.2785 146.552 70.7116 146.063C66.1448 145.573 60.5993 149.325 60.4362 150.629C60.2731 151.934 59.1314 158.948 59.9469 159.926C60.7624 160.905 63.8613 161.72 69.8961 159.763C75.9309 157.806 78.3774 155.359 79.0298 151.934Z"
stroke="#263238"
stroke-linecap="round"
stroke-linejoin="round"
/>
<path
d="M66.308 153.402C66.308 153.402 60.1884 155.829 59.947 160.578C59.81 163.188 64.1877 164.33 68.7545 164.33C73.3214 164.33 79.8454 158.621 84.0861 156.175C88.3267 153.728 98.1128 148.019 99.2545 147.53C100.396 147.041 104.311 148.346 105.942 148.835C107.496 149.168 109.082 149.332 110.672 149.324C110.672 149.324 112.955 152.912 114.097 152.912C115.238 152.912 111.65 147.53 111.161 146.388C110.672 145.247 102.68 142.637 101.701 142.637C100.722 142.637 77.8882 148.346 74.4631 149.65C71.038 150.955 66.308 153.402 66.308 153.402Z"
fill="white"
/>
<path
d="M79.1017 152.723C88.4246 148.059 101.701 142.637 101.701 142.637C100.722 142.637 77.8882 148.346 74.4631 149.65C71.038 150.955 66.308 153.402 66.308 153.402C66.308 153.402 60.1884 155.829 59.947 160.578C59.81 163.188 64.1877 164.33 68.7545 164.33C73.3214 164.33 79.8454 158.621 84.0861 156.175L86.6566 154.687C80.4261 155.476 72.0948 156.22 79.1017 152.723Z"
fill="#58D4E1"
/>
<path
opacity="0.5"
d="M79.1017 152.723C88.4246 148.059 101.701 142.637 101.701 142.637C100.722 142.637 77.8882 148.346 74.4631 149.65C71.038 150.955 66.308 153.402 66.308 153.402C66.308 153.402 60.1884 155.829 59.947 160.578C59.81 163.188 64.1877 164.33 68.7545 164.33C73.3214 164.33 79.8454 158.621 84.0861 156.175L86.6566 154.687C80.4261 155.476 72.0948 156.22 79.1017 152.723Z"
fill="white"
/>
<path
d="M66.308 153.402C66.308 153.402 60.1884 155.829 59.947 160.578C59.81 163.188 64.1877 164.33 68.7545 164.33C73.3214 164.33 79.8454 158.621 84.0861 156.175C88.3267 153.728 98.1128 148.019 99.2545 147.53C100.396 147.041 104.311 148.346 105.942 148.835C107.496 149.168 109.082 149.332 110.672 149.324C110.672 149.324 112.955 152.912 114.097 152.912C115.238 152.912 111.65 147.53 111.161 146.388C110.672 145.247 102.68 142.637 101.701 142.637C100.722 142.637 77.8882 148.346 74.4631 149.65C71.038 150.955 66.308 153.402 66.308 153.402Z"
stroke="#263238"
stroke-linecap="round"
stroke-linejoin="round"
/>
<path
d="M114.012 117.128L109.041 145.084L144.923 145.247L150.26 118.733C150.304 118.499 150.297 118.258 150.24 118.027C150.182 117.796 150.076 117.58 149.927 117.394C149.778 117.208 149.591 117.057 149.378 116.95C149.165 116.843 148.932 116.784 148.694 116.776L115.682 115.784C115.289 115.771 114.904 115.9 114.598 116.146C114.291 116.393 114.084 116.741 114.012 117.128V117.128Z"
fill="white"
stroke="#263238"
stroke-linecap="round"
stroke-linejoin="round"
/>
<path
d="M109.041 145.083L91.5692 157.44L131.529 156.298L144.923 145.246L109.041 145.083Z"
fill="white"
/>
<path
d="M109.041 145.083L91.5692 157.44L131.529 156.298L144.923 145.246L109.041 145.083Z"
fill="#58D4E1"
/>
<path
opacity="0.5"
d="M109.041 145.083L91.5692 157.44L131.529 156.298L144.923 145.246L109.041 145.083Z"
fill="white"
/>
<path
d="M109.041 145.083L91.5692 157.44L131.529 156.298L144.923 145.246L109.041 145.083Z"
stroke="#263238"
stroke-linecap="round"
stroke-linejoin="round"
/>
<path
d="M122.252 157.316C122.252 157.316 136.605 144.758 150.795 140.517C164.984 136.276 167.92 136.929 167.594 143.29C167.268 149.651 160.418 182.923 155.851 191.405C151.284 199.886 145.575 215.381 145.738 218.316C145.902 221.252 151.447 229.897 156.34 232.996C161.233 236.095 160.744 239.846 157.645 240.498C154.546 241.151 150.958 242.292 140.356 235.442C129.755 228.592 125.351 218.806 126.003 216.359C126.656 213.913 133.506 210.651 136.279 205.758C139.051 200.865 143.618 182.597 143.944 174.279C144.209 169.028 145.31 163.852 147.206 158.948C147.206 158.948 129.265 162.21 124.046 165.472L122.252 157.316Z"
fill="white"
/>
<path
d="M122.252 157.316C122.252 157.316 136.605 144.758 150.795 140.517C164.984 136.276 167.92 136.929 167.594 143.29C167.268 149.651 160.418 182.923 155.851 191.405C151.284 199.886 145.575 215.381 145.738 218.316C145.902 221.252 151.447 229.897 156.34 232.996C161.233 236.095 160.744 239.846 157.645 240.498C154.546 241.151 150.958 242.292 140.356 235.442C129.755 228.592 125.351 218.806 126.003 216.359C126.656 213.913 133.506 210.651 136.279 205.758C139.051 200.865 143.618 182.597 143.944 174.279C144.209 169.028 145.31 163.852 147.206 158.948C147.206 158.948 129.265 162.21 124.046 165.472L122.252 157.316Z"
fill="#58D4E1"
/>
<path
opacity="0.5"
d="M122.252 157.316C122.252 157.316 136.605 144.758 150.795 140.517C164.984 136.276 167.92 136.929 167.594 143.29C167.268 149.651 160.418 182.923 155.851 191.405C151.284 199.886 145.575 215.381 145.738 218.316C145.902 221.252 151.447 229.897 156.34 232.996C161.233 236.095 160.744 239.846 157.645 240.498C154.546 241.151 150.958 242.292 140.356 235.442C129.755 228.592 125.351 218.806 126.003 216.359C126.656 213.913 133.506 210.651 136.279 205.758C139.051 200.865 143.618 182.597 143.944 174.279C144.209 169.028 145.31 163.852 147.206 158.948C147.206 158.948 129.265 162.21 124.046 165.472L122.252 157.316Z"
fill="white"
/>
<path
d="M122.252 157.316C122.252 157.316 136.605 144.758 150.795 140.517C164.984 136.276 167.92 136.929 167.594 143.29C167.268 149.651 160.418 182.923 155.851 191.405C151.284 199.886 145.575 215.381 145.738 218.316C145.902 221.252 151.447 229.897 156.34 232.996C161.233 236.095 160.744 239.846 157.645 240.498C154.546 241.151 150.958 242.292 140.356 235.442C129.755 228.592 125.351 218.806 126.003 216.359C126.656 213.913 133.506 210.651 136.279 205.758C139.051 200.865 143.618 182.597 143.944 174.279C144.209 169.028 145.31 163.852 147.206 158.948C147.206 158.948 129.265 162.21 124.046 165.472L122.252 157.316Z"
stroke="#263238"
stroke-linecap="round"
stroke-linejoin="round"
/>
<path
d="M136.279 205.758C136.07 206.123 135.835 206.475 135.587 206.828C138.961 207.145 142.159 208.478 144.76 210.651C145.542 211.33 146.287 212.051 146.991 212.81C149.359 205.447 152.322 198.288 155.851 191.405C160.418 182.923 167.268 149.651 167.594 143.29C167.92 136.929 164.984 136.276 150.795 140.517C136.605 144.758 122.252 157.316 122.252 157.316L124.046 165.472C129.265 162.21 147.206 158.948 147.206 158.948C145.31 163.852 144.209 169.028 143.944 174.279C143.618 182.597 139.051 200.865 136.279 205.758Z"
fill="white"
stroke="#263238"
stroke-linecap="round"
stroke-linejoin="round"
/>
<path
d="M136.279 205.758C136.07 206.123 135.835 206.475 135.587 206.828C138.961 207.145 142.159 208.478 144.76 210.651C145.542 211.33 146.287 212.051 146.991 212.81C150.116 208.609 153.633 195.358 157.599 189.904C167.849 175.819 167.268 149.651 167.594 143.29C167.92 136.929 164.984 136.276 150.795 140.517C136.605 144.758 122.252 157.316 122.252 157.316L124.046 165.472C129.265 162.21 147.206 158.948 147.206 158.948C145.31 163.852 144.209 169.028 143.944 174.279C143.618 182.597 139.051 200.865 136.279 205.758Z"
fill="#263238"
/>
<path
opacity="0.53"
d="M136.279 205.758C136.07 206.123 135.835 206.475 135.587 206.828C138.961 207.145 142.159 208.478 144.76 210.651C145.542 211.33 146.287 212.051 146.991 212.81C150.116 208.609 153.633 195.358 157.599 189.904C167.849 175.819 167.268 149.651 167.594 143.29C167.92 136.929 164.984 136.276 150.795 140.517C136.605 144.758 122.252 157.316 122.252 157.316L124.046 165.472C129.265 162.21 147.206 158.948 147.206 158.948C145.31 163.852 144.209 169.028 143.944 174.279C143.618 182.597 139.051 200.865 136.279 205.758Z"
fill="white"
/>
<path
opacity="0.14"
d="M160.698 142.429C160.444 140.113 135.215 150.793 124.574 155.398C123.1 156.573 122.252 157.317 122.252 157.317L124.046 165.472C129.265 162.21 147.206 158.948 147.206 158.948C145.31 163.852 144.209 169.028 143.944 174.279C143.618 182.597 139.051 200.865 136.279 205.758C136.07 206.123 135.835 206.475 135.587 206.828C137.383 207.02 139.142 207.475 140.806 208.178C144.714 199.84 148.922 190.139 150.912 182.552C154.5 168.851 161.024 145.364 160.698 142.429Z"
fill="black"
/>
<path
d="M147.206 158.947C147.206 158.947 152.099 148.998 156.34 144.92"
stroke="#263238"
stroke-linecap="round"
stroke-linejoin="round"
/>
<path
d="M136.279 205.758C136.07 206.123 135.835 206.475 135.587 206.828C138.961 207.145 142.159 208.478 144.76 210.651C145.542 211.33 146.287 212.051 146.991 212.81C150.116 208.609 153.633 195.358 157.599 189.904C167.849 175.819 167.268 149.651 167.594 143.29C167.92 136.929 164.984 136.276 150.795 140.517C136.605 144.758 122.252 157.316 122.252 157.316L124.046 165.472C129.265 162.21 147.206 158.948 147.206 158.948C145.31 163.852 144.209 169.028 143.944 174.279C143.618 182.597 139.051 200.865 136.279 205.758Z"
stroke="#263238"
stroke-linecap="round"
stroke-linejoin="round"
/>
<path
d="M100.749 170.482C106.002 170.242 111.196 169.265 116.178 167.579C123.557 164.891 110.137 159.972 104.996 162.66C103.559 163.356 102.377 164.485 101.615 165.888C100.853 167.291 100.55 168.898 100.749 170.482V170.482Z"
fill="#263238"
stroke="#263238"
stroke-linecap="round"
stroke-linejoin="round"
/>
<path
d="M79.5192 159.926C79.5192 159.926 74.2999 162.862 72.5058 166.124C70.7117 169.386 78.4297 174.82 86.5847 174.494C94.7398 174.168 109.693 165.308 109.693 165.308C109.693 165.308 109.856 179.661 112.629 184.88C115.402 190.1 128.123 202.821 133.18 206.084C138.236 209.346 155.198 221.578 157.808 223.535C160.418 225.493 165.311 229.081 166.452 229.244C167.594 229.407 179.5 214.891 182.273 209.998C185.046 205.105 187.492 194.829 186.514 192.546C185.535 190.263 183.578 192.22 181.621 193.851C179.664 195.482 161.722 207.388 160.091 208.204C159.201 208.661 158.273 209.043 157.319 209.346C157.319 209.346 142.64 195.319 134.811 184.554C126.982 173.789 126.329 159.926 123.394 154.707C120.458 149.487 116.217 147.204 109.856 147.856C103.495 148.509 90.2839 151.934 79.5192 159.926Z"
fill="white"
/>
<path
d="M148.531 216.803C152.889 219.922 156.679 222.675 157.808 223.523C160.418 225.48 165.311 229.068 166.452 229.231C166.857 229.29 168.618 227.496 170.843 224.945L152.165 212.928L148.531 216.803Z"
fill="#58D4E1"
/>
<path
opacity="0.5"
d="M148.531 216.803C152.889 219.922 156.679 222.675 157.808 223.523C160.418 225.48 165.311 229.068 166.452 229.231C166.857 229.29 168.618 227.496 170.843 224.945L152.165 212.928L148.531 216.803Z"
fill="white"
/>
<path
d="M79.5192 159.926C79.5192 159.926 74.2999 162.862 72.5058 166.124C70.7117 169.386 78.4297 174.82 86.5847 174.494C94.7398 174.168 109.693 165.308 109.693 165.308C109.693 165.308 109.856 179.661 112.629 184.88C115.402 190.1 128.123 202.821 133.18 206.084C138.236 209.346 155.198 221.578 157.808 223.535C160.418 225.493 165.311 229.081 166.452 229.244C167.594 229.407 179.5 214.891 182.273 209.998C185.046 205.105 187.492 194.829 186.514 192.546C185.535 190.263 183.578 192.22 181.621 193.851C179.664 195.482 161.722 207.388 160.091 208.204C159.201 208.661 158.273 209.043 157.319 209.346C157.319 209.346 142.64 195.319 134.811 184.554C126.982 173.789 126.329 159.926 123.394 154.707C120.458 149.487 116.217 147.204 109.856 147.856C103.495 148.509 90.2839 151.934 79.5192 159.926Z"
stroke="#263238"
stroke-linecap="round"
stroke-linejoin="round"
/>
<path
d="M156.307 208.368C152.856 205.001 139.919 187.641 134.811 177.659C127.328 163.032 126.519 158.047 123.583 152.828C120.647 147.609 116.217 147.204 109.882 147.857C103.547 148.509 92.1367 149.69 78.1752 157.61C78.1752 157.61 72.3036 160.794 70.516 164.056C68.7284 167.318 75.259 175.532 86.6109 174.495C94.7399 173.751 109.719 165.309 109.719 165.309C109.719 165.309 109.882 179.662 112.655 184.881C115.428 190.1 128.15 202.822 133.206 206.084C136.409 208.152 144.401 213.828 150.488 218.199C151.989 212.739 154.683 209.751 156.307 208.368Z"
fill="#263238"
/>
<path
opacity="0.53"
d="M156.307 208.368C152.856 205.001 139.919 187.641 134.811 177.659C127.328 163.032 126.519 158.047 123.583 152.828C120.647 147.609 116.217 147.204 109.882 147.857C103.547 148.509 92.1367 149.69 78.1752 157.61C78.1752 157.61 72.3036 160.794 70.516 164.056C68.7284 167.318 75.259 175.532 86.6109 174.495C94.7399 173.751 109.719 165.309 109.719 165.309C109.719 165.309 109.882 179.662 112.655 184.881C115.428 190.1 128.15 202.822 133.206 206.084C136.409 208.152 144.401 213.828 150.488 218.199C151.989 212.739 154.683 209.751 156.307 208.368Z"
fill="white"
/>
<path
opacity="0.14"
d="M123.511 185.161C118.618 172.765 121.554 147.974 107.853 151.236C97.8716 153.611 79.5716 162.053 70.3792 166.457C71.4687 170.201 77.4709 175.329 86.585 174.494C94.714 173.75 109.693 165.308 109.693 165.308C109.693 165.308 109.856 179.661 112.629 184.881C115.402 190.1 128.124 202.822 133.18 206.084C136.383 208.152 144.375 213.828 150.462 218.199C150.986 216.289 151.751 214.454 152.739 212.738C140.591 203.755 126.245 192.083 123.511 185.161Z"
fill="black"
/>
<path
d="M109.693 165.308L109.204 156.827"
stroke="#263238"
stroke-linecap="round"
stroke-linejoin="round"
/>
<path
d="M156.307 208.368C152.856 205.001 139.919 187.641 134.811 177.659C127.328 163.032 126.519 158.047 123.583 152.828C120.647 147.609 116.217 147.204 109.882 147.857C103.547 148.509 92.1367 149.69 78.1752 157.61C78.1752 157.61 72.3036 160.794 70.516 164.056C68.7284 167.318 75.259 175.532 86.6109 174.495C94.7399 173.751 109.719 165.309 109.719 165.309C109.719 165.309 109.882 179.662 112.655 184.881C115.428 190.1 128.15 202.822 133.206 206.084C136.409 208.152 144.401 213.828 150.488 218.199C151.989 212.739 154.683 209.751 156.307 208.368Z"
stroke="#263238"
stroke-linecap="round"
stroke-linejoin="round"
/>
<path
d="M157.808 223.536C160.418 225.493 165.311 229.081 166.452 229.244C167.594 229.407 179.501 214.891 182.273 209.998C185.046 205.105 187.493 194.83 186.514 192.546C185.535 190.263 183.578 192.22 181.621 193.851C179.664 195.482 161.723 207.389 160.091 208.204C159.661 208.419 159.269 208.595 158.924 208.746C158.454 209.639 157.88 211.022 158.271 211.955C158.924 213.423 161.696 215.381 161.696 215.381L156.758 222.779L157.808 223.536Z"
fill="#263238"
stroke="#263238"
stroke-linecap="round"
stroke-linejoin="round"
/>
<path
d="M182.273 209.998C185.046 205.105 187.493 194.83 186.514 192.546C185.946 191.242 185.053 191.326 184.015 191.966C184.7 195.013 184.015 200.891 180.642 207.226C177.635 212.875 168.344 222.883 163.68 227.724C164.53 228.364 165.468 228.876 166.465 229.244C167.594 229.407 179.501 214.891 182.273 209.998Z"
fill="white"
/>
<path
d="M166.616 229.199L166.759 229.127L166.798 229.094C166.877 229.049 166.951 228.997 167.02 228.938L167.098 228.872L167.288 228.716L167.392 228.618L167.646 228.383L167.803 228.233L168.018 228.024L168.201 227.842L168.384 227.659L168.847 227.17L168.925 227.091L169.212 226.778L169.33 226.654C169.669 226.282 170.034 225.878 170.413 225.447V225.415L170.817 224.958L167.966 223.125C166.348 224.886 164.841 226.478 163.641 227.724L164.078 228.011L164.143 228.05L164.547 228.305L165.2 228.677L165.383 228.781L165.565 228.879L165.774 228.983L165.911 229.049C165.976 229.081 166.044 229.109 166.113 229.133L166.211 229.172C166.286 229.204 166.365 229.226 166.446 229.238C166.487 229.248 166.529 229.248 166.57 229.238L166.616 229.199Z"
fill="#58D4E1"
/>
<path
opacity="0.5"
d="M166.616 229.199L166.759 229.127L166.798 229.094C166.877 229.049 166.951 228.997 167.02 228.938L167.098 228.872L167.288 228.716L167.392 228.618L167.646 228.383L167.803 228.233L168.018 228.024L168.201 227.842L168.384 227.659L168.847 227.17L168.925 227.091L169.212 226.778L169.33 226.654C169.669 226.282 170.034 225.878 170.413 225.447V225.415L170.817 224.958L167.966 223.125C166.348 224.886 164.841 226.478 163.641 227.724L164.078 228.011L164.143 228.05L164.547 228.305L165.2 228.677L165.383 228.781L165.565 228.879L165.774 228.983L165.911 229.049C165.976 229.081 166.044 229.109 166.113 229.133L166.211 229.172C166.286 229.204 166.365 229.226 166.446 229.238C166.487 229.248 166.529 229.248 166.57 229.238L166.616 229.199Z"
fill="white"
/>
<path
d="M182.273 209.998C185.046 205.105 187.493 194.83 186.514 192.546C185.946 191.242 185.053 191.326 184.015 191.966C184.7 195.013 184.015 200.891 180.642 207.226C177.635 212.875 168.344 222.883 163.68 227.724C164.53 228.364 165.468 228.876 166.465 229.244C167.594 229.407 179.501 214.891 182.273 209.998Z"
stroke="#263238"
stroke-linecap="round"
stroke-linejoin="round"
/>
<path
d="M156.34 232.995C151.447 229.897 145.902 221.252 145.738 218.316C145.731 217.995 145.757 217.673 145.817 217.357C144.843 217.388 143.903 217.724 143.129 218.316C141.121 216.494 138.996 214.805 136.768 213.26C134.974 212.227 132.963 211.626 130.896 211.505C128.528 213.462 126.329 215.028 125.984 216.359C125.331 218.806 129.735 228.592 140.336 235.442C150.938 242.292 154.526 241.151 157.625 240.498C160.724 239.846 161.233 236.094 156.34 232.995Z"
fill="#263238"
stroke="#263238"
stroke-linecap="round"
stroke-linejoin="round"
/>
<path
d="M156.34 232.996C154.719 231.897 153.257 230.579 151.995 229.081C148.629 227.646 144.134 225.819 140.193 223.366C135.953 220.756 136.931 219.125 134.485 216.679C132.606 214.8 128.913 214.559 127.308 214.546C126.729 215.029 126.28 215.651 126.003 216.353C125.351 218.799 129.755 228.585 140.356 235.436C150.958 242.286 154.546 241.144 157.645 240.492C160.744 239.839 161.233 236.095 156.34 232.996Z"
fill="white"
/>
<path
d="M156.34 232.996C154.719 231.897 153.257 230.579 151.995 229.081C148.629 227.646 144.134 225.819 140.193 223.366C135.953 220.756 136.931 219.125 134.485 216.679C132.606 214.8 128.913 214.559 127.308 214.546C126.729 215.029 126.28 215.651 126.003 216.353C125.351 218.799 129.755 228.585 140.356 235.436C150.958 242.286 154.546 241.144 157.645 240.492C160.744 239.839 161.233 236.095 156.34 232.996Z"
fill="#58D4E1"
/>
<path
opacity="0.5"
d="M156.34 232.996C154.719 231.897 153.257 230.579 151.995 229.081C148.629 227.646 144.134 225.819 140.193 223.366C135.953 220.756 136.931 219.125 134.485 216.679C132.606 214.8 128.913 214.559 127.308 214.546C126.729 215.029 126.28 215.651 126.003 216.353C125.351 218.799 129.755 228.585 140.356 235.436C150.958 242.286 154.546 241.144 157.645 240.492C160.744 239.839 161.233 236.095 156.34 232.996Z"
fill="white"
/>
<path
d="M156.34 232.996C154.719 231.897 153.257 230.579 151.995 229.081C148.629 227.646 144.134 225.819 140.193 223.366C135.953 220.756 136.931 219.125 134.485 216.679C132.606 214.8 128.913 214.559 127.308 214.546C126.729 215.029 126.28 215.651 126.003 216.353C125.351 218.799 129.755 228.585 140.356 235.436C150.958 242.286 154.546 241.144 157.645 240.492C160.744 239.839 161.233 236.095 156.34 232.996Z"
stroke="#263238"
stroke-linecap="round"
stroke-linejoin="round"
/>
<path
d="M157.156 234.137C152.915 231.691 144.271 230.06 138.725 226.309C133.18 222.557 134.648 219.295 130.57 216.686C129.918 216.199 129.138 215.914 128.326 215.868C127.514 215.821 126.706 216.015 126.003 216.425C125.436 218.969 129.852 228.644 140.356 235.442C150.86 242.24 154.546 241.151 157.645 240.498C159.706 240.061 160.6 238.261 159.537 236.193C158.871 235.372 158.065 234.676 157.156 234.137V234.137Z"
fill="#263238"
/>
<path
opacity="0.53"
d="M157.156 234.137C152.915 231.691 144.271 230.06 138.725 226.309C133.18 222.557 134.648 219.295 130.57 216.686C129.918 216.199 129.138 215.914 128.326 215.868C127.514 215.821 126.706 216.015 126.003 216.425C125.436 218.969 129.852 228.644 140.356 235.442C150.86 242.24 154.546 241.151 157.645 240.498C159.706 240.061 160.6 238.261 159.537 236.193C158.871 235.372 158.065 234.676 157.156 234.137V234.137Z"
fill="white"
/>
<path
d="M157.156 234.137C152.915 231.691 144.271 230.06 138.725 226.309C133.18 222.557 134.648 219.295 130.57 216.686C129.918 216.199 129.138 215.914 128.326 215.868C127.514 215.821 126.706 216.015 126.003 216.425C125.436 218.969 129.852 228.644 140.356 235.442C150.86 242.24 154.546 241.151 157.645 240.498C159.706 240.061 160.6 238.261 159.537 236.193C158.871 235.372 158.065 234.676 157.156 234.137V234.137Z"
stroke="#263238"
stroke-linecap="round"
stroke-linejoin="round"
/>
<path
d="M75.8789 202.94C75.8789 202.94 79.0104 199.136 79.4541 202.046C79.8977 204.955 79.2322 210.318 76.9945 212.328C74.7567 214.337 73.6411 211.212 73.6411 211.212L74.9851 209.424C74.9851 209.424 76.1007 211.662 76.9945 208.08C77.8883 204.499 75.2069 204.949 75.2069 204.949L75.8789 202.94Z"
fill="white"
stroke="#263238"
stroke-linecap="round"
stroke-linejoin="round"
/>
<path
d="M73.4846 217.253C71.6318 218.623 65.5905 218.623 63.7442 217.253C59.8298 214.35 60.4822 200.323 60.4822 200.323H76.701C76.701 200.323 77.4056 214.35 73.4846 217.253Z"
fill="white"
stroke="#263238"
stroke-linecap="round"
stroke-linejoin="round"
/>
<path
d="M62.2567 197.57C62.2567 195.808 63.8942 195.808 63.8942 194.04C63.8942 192.272 62.2567 192.272 62.2567 190.511C62.2567 188.749 63.8942 188.743 63.8942 186.975C63.8942 185.207 62.2567 185.207 62.2567 183.439C62.2567 181.671 63.8942 181.671 63.8942 179.903"
stroke="#263238"
stroke-linecap="round"
stroke-linejoin="round"
/>
<path
d="M67.8607 197.57C67.8607 196.265 69.4983 196.265 69.4983 194.889C69.4983 193.512 67.8607 193.551 67.8607 192.207C67.8607 190.863 69.4983 190.87 69.4983 189.526C69.4983 188.182 67.8607 188.182 67.8607 186.838C67.8607 185.494 69.4983 185.501 69.4983 184.157"
stroke="#263238"
stroke-linecap="round"
stroke-linejoin="round"
/>
<path
d="M74.0259 197.57C74.0259 195.808 75.657 195.808 75.657 194.04C75.657 192.272 74.0259 192.272 74.0259 190.511C74.0259 188.749 75.657 188.743 75.657 186.975C75.657 185.207 74.0259 185.207 74.0259 183.439C74.0259 181.671 75.657 181.671 75.657 179.903"
stroke="#263238"
stroke-linecap="round"
stroke-linejoin="round"
/>
<path
d="M76.714 200.323C76.714 200.734 73.0866 201.06 68.6046 201.06C64.1226 201.06 60.4952 200.734 60.4952 200.323C60.4952 199.912 64.1226 199.586 68.6046 199.586C73.0866 199.586 76.714 199.912 76.714 200.323Z"
fill="white"
stroke="#263238"
stroke-linecap="round"
stroke-linejoin="round"
/>
<path
d="M91.6865 99.3696C91.6865 99.3696 92.4498 107.609 92.7695 110.213C93.0891 112.816 93.8133 120.292 94.5636 122.765C95.3138 125.238 99.4044 129.537 99.7828 128.545C100.161 127.554 102.197 120.827 101.388 116.802C100.579 112.777 100.331 109.338 100.833 108.321C101.336 107.303 103.143 106.161 103.143 106.161C101.038 105.083 98.9928 103.892 97.0166 102.592C94.133 100.674 92.091 98.5019 91.6865 99.3696Z"
fill="white"
/>
<path
d="M102.157 106.605L101.505 105.339C100.305 104.687 98.6345 103.721 97.0491 102.658C94.1459 100.701 92.1039 98.5022 91.6994 99.396C91.6994 99.396 92.4627 107.636 92.7824 110.239C93.1021 112.842 93.8262 120.319 94.5765 122.791C94.8325 123.514 95.1858 124.199 95.6269 124.827C94.8375 119.908 95.6921 111.022 95.6921 111.022L102.157 106.605Z"
fill="#58D4E1"
/>
<path
opacity="0.5"
d="M102.157 106.605L101.505 105.339C100.305 104.687 98.6345 103.721 97.0491 102.658C94.1459 100.701 92.1039 98.5022 91.6994 99.396C91.6994 99.396 92.4627 107.636 92.7824 110.239C93.1021 112.842 93.8262 120.319 94.5765 122.791C94.8325 123.514 95.1858 124.199 95.6269 124.827C94.8375 119.908 95.6921 111.022 95.6921 111.022L102.157 106.605Z"
fill="white"
/>
<path
d="M91.6865 99.3696C91.6865 99.3696 92.4498 107.609 92.7695 110.213C93.0891 112.816 93.8133 120.292 94.5636 122.765C95.3138 125.238 99.4044 129.537 99.7828 128.545C100.161 127.554 102.197 120.827 101.388 116.802C100.579 112.777 100.331 109.338 100.833 108.321C101.336 107.303 103.143 106.161 103.143 106.161C101.038 105.083 98.9928 103.892 97.0166 102.592C94.133 100.674 92.091 98.5019 91.6865 99.3696Z"
stroke="#263238"
stroke-linecap="round"
stroke-linejoin="round"
/>
<path
d="M91.3865 100.563C91.3865 100.563 96.0838 104.478 99.6851 105.913C103.286 107.349 108.819 107.257 109.608 105.385C110.398 103.512 108.238 88.6832 106.379 84.7818C104.519 80.8804 102.536 80.8151 99.2545 80.515C95.9729 80.2149 89.4097 82.8898 88.255 86.0605C87.1002 89.2312 88.4181 93.7197 89.3706 96.3816C89.8743 97.8506 90.551 99.2544 91.3865 100.563V100.563Z"
fill="white"
/>
<path
d="M99.8221 100.387C98.1585 95.455 97.7409 87.6914 97.7409 85.6233C97.7409 84.0249 101.903 82.2699 103.802 81.5523C102.556 80.7824 101.107 80.6846 99.2349 80.5149C95.9729 80.2213 89.3901 82.8897 88.2354 86.0604C87.0806 89.2311 88.3985 93.7196 89.351 96.3815C89.8547 97.8505 90.5314 99.2543 91.3669 100.563C91.3669 100.563 96.0642 104.478 99.6655 105.913C102.161 106.858 104.865 107.117 107.494 106.663C104.917 105.691 100.931 103.682 99.8221 100.387Z"
fill="#58D4E1"
/>
<path
opacity="0.5"
d="M99.8221 100.387C98.1585 95.455 97.7409 87.6914 97.7409 85.6233C97.7409 84.0249 101.903 82.2699 103.802 81.5523C102.556 80.7824 101.107 80.6846 99.2349 80.5149C95.9729 80.2213 89.3901 82.8897 88.2354 86.0604C87.0806 89.2311 88.3985 93.7196 89.351 96.3815C89.8547 97.8505 90.5314 99.2543 91.3669 100.563C91.3669 100.563 96.0642 104.478 99.6655 105.913C102.161 106.858 104.865 107.117 107.494 106.663C104.917 105.691 100.931 103.682 99.8221 100.387Z"
fill="white"
/>
<path
d="M91.3865 100.563C91.3865 100.563 96.0838 104.478 99.6851 105.913C103.286 107.349 108.819 107.257 109.608 105.385C110.398 103.512 108.238 88.6832 106.379 84.7818C104.519 80.8804 102.536 80.8151 99.2545 80.515C95.9729 80.2149 89.4097 82.8898 88.255 86.0605C87.1002 89.2312 88.4181 93.7197 89.3706 96.3816C89.8743 97.8506 90.551 99.2544 91.3865 100.563V100.563Z"
stroke="#263238"
stroke-linecap="round"
stroke-linejoin="round"
/>
<path
d="M106.731 90.8886C106.809 92.7675 105.628 94.3398 104.121 94.3985C102.614 94.4572 101.296 92.9893 101.225 91.1365C101.153 89.2836 102.327 87.6852 103.834 87.62C105.341 87.5548 106.659 88.99 106.731 90.8886Z"
stroke="#263238"
stroke-linecap="round"
stroke-linejoin="round"
/>
<path
d="M110.424 90.1575C110.502 92.0364 109.895 93.5826 109.073 93.6152C108.251 93.6479 107.521 92.1538 107.449 90.2749C107.377 88.396 107.984 86.8433 108.806 86.8106C109.628 86.778 110.352 88.2786 110.424 90.1575Z"
stroke="#263238"
stroke-linecap="round"
stroke-linejoin="round"
/>
<path
d="M106.927 90.1967C106.927 90.1967 112.316 91.221 111.794 92.5193C111.272 93.8176 107.631 95.2202 107.631 95.2202"
fill="white"
/>
<path
d="M106.927 90.1967C106.927 90.1967 112.316 91.221 111.794 92.5193C111.272 93.8176 107.631 95.2202 107.631 95.2202"
stroke="#263238"
stroke-linecap="round"
stroke-linejoin="round"
/>
<path
d="M106.594 89.5835C106.594 89.5835 106.672 88.9311 107.501 89.3421"
stroke="#263238"
stroke-linecap="round"
stroke-linejoin="round"
/>
<path
d="M101.055 91.3968L91.2559 95.2525"
stroke="#263238"
stroke-linecap="round"
stroke-linejoin="round"
/>
<path
d="M101.185 88.2263C101.392 87.7599 101.737 87.3682 102.173 87.1045C102.61 86.8407 103.117 86.7176 103.625 86.7518"
stroke="#263238"
stroke-width="2"
stroke-linecap="round"
stroke-linejoin="round"
/>
<path
d="M107.71 86.7976L106.203 87.3652"
stroke="#263238"
stroke-width="2"
stroke-linecap="round"
stroke-linejoin="round"
/>
<path
d="M103.052 97.7386C103.052 97.7386 105.009 97.2297 106.118 98.391"
stroke="#263238"
stroke-linecap="round"
stroke-linejoin="round"
/>
<path
d="M104.311 91.2278C104.402 91.8802 104.311 92.4412 104.043 92.4739C103.776 92.5065 103.541 92.0041 103.449 91.3452C103.358 90.6863 103.482 90.1382 103.723 90.1056C103.965 90.073 104.226 90.5754 104.311 91.2278Z"
fill="#263238"
/>
<path
d="M92.1694 95.2791C92.1694 95.2791 91.517 96.5839 93.3568 96.6491C95.1965 96.7144 96.4492 95.8206 95.5554 94.6919C94.6616 93.5632 93.3372 92.5063 94.7007 91.0319C96.0642 89.5575 98.713 88.3179 97.2255 86.6738C95.738 85.0298 90.2644 86.5238 91.6344 85.1929C93.0045 83.862 99.3328 82.4723 102.177 82.6485C105.022 82.8246 110.332 80.6195 111.5 77.7358C112.668 74.8522 111.037 69.5221 107.214 69.8091C103.391 70.0962 100.54 73.4822 98.8435 73.7236C97.1472 73.9649 93.6699 72.0795 90.7537 73.7236C87.8374 75.3676 87.7395 80.091 87.4916 80.6717C87.2437 81.2523 83.2901 82.1135 82.592 86.1127C82.33 87.7251 82.442 89.3761 82.9193 90.9383C83.3967 92.5004 84.2267 93.932 85.3452 95.1225C86.9827 96.9036 87.72 97.5821 87.72 97.5821L92.1694 95.2791Z"
fill="#263238"
stroke="#263238"
stroke-linecap="round"
stroke-linejoin="round"
/>
<path
d="M83.8708 88.0502C83.8368 88.6571 83.982 89.2606 84.2884 89.7856"
stroke="white"
stroke-width="0.75"
stroke-linecap="round"
stroke-linejoin="round"
/>
<path
d="M100.501 77.7227C100.501 77.7227 99.0783 74.6107 102.706 74.6107C106.333 74.6107 106.855 79.1776 103.097 80.8347C99.3393 82.4918 91.1646 82.9093 86.7544 84.86C85.8888 85.1988 85.1186 85.7429 84.5101 86.4454"
stroke="white"
stroke-width="0.75"
stroke-linecap="round"
stroke-linejoin="round"
/>
<path
d="M93.9308 88.7746C92.626 89.2443 90.9363 89.8967 89.2205 90.6927C85.5866 92.3824 86.3629 94.0656 86.3629 94.0656"
stroke="white"
stroke-width="0.75"
stroke-linecap="round"
stroke-linejoin="round"
/>
<path
d="M96.3514 87.9717C96.3514 87.9717 96.0317 88.0631 95.4902 88.2392"
stroke="white"
stroke-width="0.75"
stroke-linecap="round"
stroke-linejoin="round"
/>
<path
d="M92.7892 96.6747C92.7892 96.6747 90.682 93.6345 88.4638 94.8545C86.2456 96.0745 87.9679 100.413 89.3054 101.92C90.6428 103.427 93.2198 100.615 93.4873 99.9107"
fill="white"
/>
<path
d="M92.7892 96.6747C92.7892 96.6747 90.682 93.6345 88.4638 94.8545C86.2456 96.0745 87.9679 100.413 89.3054 101.92C90.6428 103.427 93.2198 100.615 93.4873 99.9107"
fill="#58D4E1"
/>
<path
opacity="0.5"
d="M92.7892 96.6747C92.7892 96.6747 90.682 93.6345 88.4638 94.8545C86.2456 96.0745 87.9679 100.413 89.3054 101.92C90.6428 103.427 93.2198 100.615 93.4873 99.9107"
fill="white"
/>
<path
d="M92.7892 96.6747C92.7892 96.6747 90.682 93.6345 88.4638 94.8545C86.2456 96.0745 87.9679 100.413 89.3054 101.92C90.6428 103.427 93.2198 100.615 93.4873 99.9107"
stroke="#263238"
stroke-linecap="round"
stroke-linejoin="round"
/>
<path
d="M66.1775 93.9028H19.413C17.5682 93.9028 16.0727 95.3984 16.0727 97.2432V131.429C16.0727 133.274 17.5682 134.77 19.413 134.77H66.1775C68.0223 134.77 69.5178 133.274 69.5178 131.429V97.2432C69.5178 95.3984 68.0223 93.9028 66.1775 93.9028Z"
fill="white"
stroke="#263238"
stroke-linecap="round"
stroke-linejoin="round"
/>
<path
d="M68.5001 123.3L99.8156 131.455L68.5001 116.123"
fill="white"
/>
<path
d="M68.5001 123.3L99.8156 131.455L68.5001 116.123"
stroke="#263238"
stroke-linecap="round"
stroke-linejoin="round"
/>
<path
d="M32.9634 97.8298H20.3915V130.842H32.9634V97.8298Z"
fill="#58D4E1"
stroke="#263238"
stroke-linecap="round"
stroke-linejoin="round"
/>
<path
d="M66.7451 97.8298H65.1728V130.842H66.7451V97.8298Z"
fill="#58D4E1"
stroke="#263238"
stroke-linecap="round"
stroke-linejoin="round"
/>
<path
d="M66.7451 112.92H65.1728V115.739H66.7451V112.92Z"
fill="#263238"
stroke="#263238"
stroke-linecap="round"
stroke-linejoin="round"
/>
<path
d="M36.8973 98.6128H61.6562"
stroke="#263238"
stroke-linecap="round"
stroke-linejoin="round"
/>
<path
d="M36.8973 102.149H61.6562"
stroke="#263238"
stroke-linecap="round"
stroke-linejoin="round"
/>
<path
d="M36.8973 105.691H61.6562"
stroke="#263238"
stroke-linecap="round"
stroke-linejoin="round"
/>
<path
d="M36.8973 109.228H61.6562"
stroke="#263238"
stroke-linecap="round"
stroke-linejoin="round"
/>
<path
d="M36.8973 117.872H61.6562"
stroke="#263238"
stroke-linecap="round"
stroke-linejoin="round"
/>
<path
d="M36.8973 121.016H61.6562"
stroke="#263238"
stroke-linecap="round"
stroke-linejoin="round"
/>
<path
d="M36.8973 124.161H61.6562"
stroke="#263238"
stroke-linecap="round"
stroke-linejoin="round"
/>
<path
d="M36.8973 130.685H61.6562"
stroke="#263238"
stroke-linecap="round"
stroke-linejoin="round"
/>
<path
d="M20.3915 130.835L32.9699 97.8298"
stroke="#263238"
stroke-linecap="round"
stroke-linejoin="round"
/>
<path
d="M209.87 222.192C215.898 222.192 220.785 220.001 220.785 217.299C220.785 214.597 215.898 212.406 209.87 212.406C203.842 212.406 198.955 214.597 198.955 217.299C198.955 220.001 203.842 222.192 209.87 222.192Z"
fill="#58D4E1"
/>
<path
opacity="0.5"
d="M209.87 222.192C215.898 222.192 220.785 220.001 220.785 217.299C220.785 214.597 215.898 212.406 209.87 212.406C203.842 212.406 198.955 214.597 198.955 217.299C198.955 220.001 203.842 222.192 209.87 222.192Z"
fill="white"
/>
<path
d="M197.102 144.895C198.27 145.404 201.128 145.338 201.128 145.338C201.128 145.338 200.514 143.466 200.475 143.381C199.823 142.076 197.866 139.904 196.254 140.119C195.989 140.167 195.737 140.269 195.514 140.419C195.291 140.569 195.1 140.763 194.955 140.989C194.81 141.216 194.713 141.47 194.671 141.735C194.628 142.001 194.641 142.273 194.708 142.533C194.949 143.629 196.104 144.458 197.102 144.895Z"
fill="#263238"
/>
<path
d='M234.524 135.167C232.906 134.998 230.982 137.21 230.388 138.54C230.336 138.658 229.736 140.543 229.775 140.543H229.807C229.501 140.889 229.155 141.267 228.835 141.685C228.183 142.461 227.491 143.342 226.787 144.36C226.014 145.443 225.306 146.572 224.666 147.739C223.942 149.044 223.335 150.411 222.853 151.823C222.849 151.841 222.849 151.858 222.853 151.876C222.853 151.399 222.853 150.062 222.853 149.958C222.664 148.522 221.457 145.841 219.852 145.547C219.585 145.511 219.314 145.53 219.056 145.603C218.797 145.676 218.556 145.801 218.348 145.971C218.14 146.141 217.969 146.353 217.846 146.592C217.723 146.831 217.651 147.093 217.634 147.361C217.542 148.503 218.371 149.651 219.18 150.375C220.093 151.191 222.624 151.98 222.827 152.039C222.375 153.489 222.018 154.966 221.757 156.462C221.6 157.336 221.476 158.217 221.352 159.104C221.352 158.687 221.352 158.321 221.352 158.269C221.163 156.827 219.956 154.153 218.358 153.859C218.091 153.822 217.82 153.84 217.561 153.912C217.302 153.984 217.061 154.108 216.852 154.278C216.643 154.448 216.471 154.658 216.348 154.897C216.224 155.136 216.151 155.398 216.133 155.666C216.042 156.814 216.87 157.956 217.679 158.68C218.488 159.404 220.648 160.135 221.222 160.318C221.183 160.657 221.137 160.97 221.091 161.336C220.896 162.967 220.713 164.598 220.478 166.196C220.393 166.757 220.295 167.305 220.197 167.853C220.197 167.488 220.197 167.201 220.197 167.135C220.008 165.694 218.801 163.019 217.196 162.719C216.93 162.682 216.659 162.701 216.4 162.774C216.142 162.847 215.901 162.972 215.693 163.143C215.484 163.313 215.314 163.524 215.191 163.763C215.068 164.002 214.995 164.264 214.978 164.532C214.887 165.681 215.715 166.822 216.524 167.546C217.333 168.271 219.284 168.93 219.963 169.145C219.845 169.706 219.721 170.267 219.584 170.808C219.48 171.174 219.402 171.533 219.278 171.891C219.154 172.25 219.049 172.609 218.932 172.961C218.69 173.614 218.443 174.331 218.188 174.977C218.012 175.434 217.836 175.865 217.666 176.282C217.751 175.721 217.901 174.625 217.901 174.534C217.885 173.255 217.541 172.001 216.903 170.893C216.913 170.752 216.913 170.61 216.903 170.469C216.864 170.203 216.771 169.948 216.63 169.72C216.488 169.491 216.301 169.294 216.08 169.141C215.859 168.988 215.609 168.882 215.345 168.83C215.082 168.778 214.81 168.781 214.548 168.838C212.975 169.256 211.977 172.015 211.899 173.464C211.899 173.555 211.951 174.488 211.997 175.075C211.918 174.736 211.847 174.423 211.762 174.051C211.592 173.353 211.41 172.661 211.214 171.924C211.103 171.565 210.999 171.206 210.888 170.848C210.777 170.489 210.633 170.117 210.509 169.745C210.196 168.897 209.857 168.049 209.459 167.201C210.072 167.057 212.225 166.509 213.093 165.844C213.96 165.178 214.867 164.102 214.854 162.953C214.861 162.685 214.81 162.417 214.707 162.169C214.603 161.921 214.449 161.697 214.253 161.513C214.057 161.328 213.825 161.187 213.571 161.098C213.317 161.009 213.048 160.974 212.78 160.996C211.155 161.172 209.752 163.749 209.459 165.172C209.459 165.263 209.348 166.307 209.302 166.881C209.074 166.372 208.846 165.87 208.598 165.361C207.874 163.906 207.097 162.458 206.327 161.003C206.086 160.559 205.858 160.116 205.629 159.665C205.845 159.62 208.422 159.013 209.387 158.276C210.248 157.623 211.162 156.534 211.155 155.386C211.156 155.118 211.101 154.853 210.995 154.607C210.889 154.361 210.734 154.139 210.539 153.956C210.344 153.772 210.113 153.631 209.861 153.54C209.609 153.449 209.341 153.411 209.074 153.428C207.456 153.604 206.053 156.182 205.76 157.604C205.76 157.708 205.603 159.215 205.584 159.6C205.075 158.615 204.579 157.643 204.122 156.645C203.506 155.314 202.977 153.946 202.537 152.548C202.635 152.548 205.329 151.895 206.321 151.151C207.182 150.499 208.095 149.41 208.089 148.261C208.089 147.993 208.035 147.728 207.929 147.483C207.823 147.237 207.668 147.015 207.472 146.832C207.277 146.648 207.047 146.507 206.795 146.416C206.543 146.325 206.275 146.287 206.008 146.304C204.39 146.48 202.987 149.057 202.693 150.479C202.693 150.597 202.524 152.215 202.517 152.508C202.517 152.424 202.459 152.345 202.432 152.261C202.03 150.844 201.754 149.394 201.61 147.929C201.519 147.126 201.48 146.343 201.454 145.586C201.969 145.528 204.305 145.215 205.277 144.627C206.249 144.04 207.234 143.094 207.352 141.946C207.383 141.679 207.36 141.408 207.282 141.151C207.205 140.894 207.075 140.655 206.901 140.45C206.727 140.245 206.513 140.078 206.272 139.959C206.03 139.841 205.767 139.773 205.499 139.76C203.868 139.76 202.191 142.168 201.741 143.544C201.741 143.623 201.558 144.412 201.447 144.993C201.447 144.647 201.447 144.295 201.447 143.968C201.447 142.742 201.526 141.613 201.604 140.615C201.656 140.047 201.708 139.539 201.767 139.056C202.237 138.736 204.116 137.405 204.696 136.446C205.277 135.487 205.727 134.182 205.303 133.119C205.213 132.864 205.071 132.63 204.885 132.434C204.699 132.238 204.473 132.083 204.223 131.98C203.973 131.877 203.704 131.829 203.433 131.837C203.163 131.846 202.898 131.911 202.654 132.029C201.206 132.773 200.828 135.683 201.062 137.118C201.062 137.242 201.63 139.141 201.656 139.128C201.597 139.584 201.532 140.08 201.473 140.615C201.376 141.613 201.271 142.742 201.245 143.981C201.199 145.311 201.23 146.642 201.336 147.968C201.454 149.455 201.703 150.928 202.08 152.371C202.076 152.389 202.076 152.406 202.08 152.424C201.826 152.026 201.069 150.923 201.004 150.845C200.051 149.742 197.572 148.183 196.071 148.816C195.829 148.932 195.613 149.097 195.438 149.3C195.262 149.503 195.13 149.74 195.05 149.997C194.969 150.253 194.943 150.523 194.972 150.79C195 151.058 195.084 151.316 195.217 151.549C195.771 152.561 197.096 153.056 198.172 153.213C199.379 153.389 201.93 152.652 202.132 152.593C202.554 154.05 203.07 155.477 203.679 156.867C204.031 157.682 204.409 158.491 204.801 159.293C204.566 158.954 204.357 158.641 204.324 158.641C203.372 157.545 200.886 155.979 199.392 156.612C199.149 156.728 198.932 156.893 198.756 157.097C198.58 157.301 198.447 157.538 198.367 157.796C198.287 158.053 198.26 158.324 198.29 158.592C198.319 158.86 198.404 159.118 198.538 159.352C199.092 160.357 200.417 160.859 201.486 161.016C202.556 161.172 204.748 160.585 205.342 160.422C205.492 160.729 205.642 161.035 205.799 161.342C206.536 162.816 207.28 164.278 207.965 165.733C208.206 166.248 208.422 166.764 208.617 167.279C208.415 166.972 208.239 166.724 208.206 166.685C207.254 165.589 204.768 164.023 203.274 164.656C203.031 164.772 202.814 164.937 202.638 165.141C202.461 165.345 202.329 165.583 202.249 165.84C202.169 166.097 202.142 166.368 202.172 166.636C202.201 166.904 202.285 167.163 202.419 167.396C202.974 168.401 204.298 168.897 205.368 169.053C206.438 169.21 208.435 168.682 209.12 168.492C209.328 169.027 209.544 169.562 209.72 170.091C209.837 170.45 209.974 170.789 210.066 171.161C210.157 171.533 210.268 171.885 210.372 172.244C210.535 172.942 210.712 173.659 210.862 174.338C210.966 174.814 211.057 175.264 211.149 175.721C210.914 175.206 210.431 174.214 210.385 174.136C209.609 172.903 207.391 170.978 205.818 171.383C205.557 171.455 205.315 171.583 205.106 171.756C204.898 171.929 204.729 172.145 204.61 172.388C204.491 172.632 204.425 172.898 204.416 173.168C204.408 173.439 204.456 173.709 204.559 173.96C204.951 175.036 206.184 175.728 207.221 176.047C208.369 176.393 210.901 176.047 211.214 176.047C211.364 176.804 211.507 177.541 211.625 178.239C212.055 180.653 212.316 182.682 212.48 184.111C212.48 184.365 212.532 184.587 212.558 184.803H207.658L209.231 215.531C209.289 216.656 209.777 217.716 210.594 218.491C211.411 219.267 212.495 219.7 213.621 219.7V219.7C214.747 219.7 215.83 219.267 216.646 218.491C217.462 217.715 217.949 216.655 218.005 215.531L219.584 184.803H215.017C215.05 184.731 215.083 184.666 215.122 184.594C215.774 183.289 216.616 181.41 217.555 179.12C217.849 178.396 218.155 177.613 218.456 176.811C218.762 176.876 221.267 177.385 222.435 177.117C223.499 176.882 224.777 176.282 225.254 175.238C225.37 174.995 225.434 174.73 225.443 174.46C225.452 174.191 225.405 173.922 225.305 173.672C225.205 173.421 225.054 173.194 224.863 173.004C224.671 172.815 224.442 172.667 224.19 172.57C222.644 172.055 220.276 173.81 219.428 174.977C219.375 175.043 218.912 175.858 218.625 176.373C218.743 176.041 218.867 175.721 218.991 175.382C219.238 174.729 219.46 174.038 219.708 173.307C219.813 172.955 219.923 172.596 220.028 172.231C220.132 171.865 220.224 171.48 220.321 171.102C220.53 170.221 220.7 169.321 220.85 168.408C221.437 168.623 223.538 169.354 224.627 169.275C225.717 169.197 227.067 168.799 227.694 167.84C227.844 167.617 227.947 167.365 227.995 167.1C228.044 166.836 228.037 166.564 227.976 166.302C227.915 166.04 227.8 165.793 227.639 165.577C227.478 165.362 227.275 165.181 227.041 165.048C225.593 164.297 223.003 165.7 221.972 166.698C221.907 166.764 221.248 167.586 220.896 168.042C220.987 167.488 221.072 166.94 221.143 166.385C221.346 164.767 221.496 163.123 221.652 161.492L221.809 159.998C222.018 160.076 224.497 160.996 225.723 160.911C226.806 160.833 228.163 160.435 228.79 159.476C228.94 159.253 229.043 159.001 229.091 158.736C229.14 158.472 229.133 158.2 229.072 157.938C229.011 157.676 228.896 157.429 228.735 157.213C228.574 156.998 228.371 156.817 228.137 156.684C226.689 155.934 224.092 157.336 223.068 158.334C222.99 158.413 222.044 159.594 221.822 159.907C221.933 158.804 222.063 157.708 222.233 156.645C222.452 155.193 222.763 153.757 223.166 152.345C223.264 152.384 225.847 153.357 227.08 153.265C228.163 153.193 229.52 152.796 230.147 151.83C230.297 151.607 230.4 151.355 230.448 151.09C230.497 150.826 230.49 150.554 230.429 150.292C230.368 150.03 230.253 149.783 230.092 149.567C229.932 149.351 229.728 149.171 229.494 149.038C228.046 148.294 225.456 149.69 224.425 150.695C224.347 150.773 223.329 152.045 223.166 152.287C223.166 152.208 223.205 152.117 223.231 152.039C223.676 150.634 224.246 149.271 224.934 147.968C225.299 147.244 225.697 146.572 226.095 145.932C226.558 146.161 228.705 147.191 229.814 147.237C230.923 147.283 232.287 147.035 233.017 146.147C233.192 145.943 233.323 145.704 233.402 145.446C233.48 145.188 233.504 144.917 233.473 144.649C233.442 144.382 233.356 144.123 233.22 143.891C233.084 143.658 232.902 143.456 232.685 143.296C231.328 142.396 228.6 143.479 227.465 144.386C227.407 144.438 226.813 145.038 226.421 145.43L226.969 144.562C227.654 143.538 228.34 142.644 228.927 141.855C229.279 141.404 229.612 141.013 229.918 140.641C230.492 140.641 232.795 140.563 233.8 140.093C234.805 139.623 235.907 138.788 236.149 137.647C236.226 137.376 236.245 137.092 236.202 136.814C236.16 136.536 236.059 136.27 235.904 136.035C235.75 135.8 235.547 135.6 235.309 135.451C235.071 135.301 234.803 135.204 234.524 135.167V135.167ZM216.603 178.644C215.624 180.895 214.724 182.734 214.078 184.007L213.726 184.705H213.615C213.582 184.457 213.549 184.183 213.504 183.876C213.308 182.441 213.001 180.399 212.519 178.004C212.362 177.235 212.186 176.413 211.997 175.578C212.759 175.27 213.503 174.921 214.228 174.534C215.212 175.379 216.31 176.082 217.49 176.621C217.177 177.306 216.89 177.998 216.603 178.644V178.644Z'
fill='#263238'
/>
<path
d='M225.997 145.521C225.997 145.521 226.513 143.623 226.532 143.499C226.734 142.057 226.271 139.16 224.81 138.449C224.563 138.345 224.298 138.293 224.03 138.296C223.762 138.298 223.498 138.356 223.253 138.465C223.009 138.573 222.789 138.731 222.608 138.928C222.427 139.126 222.288 139.358 222.2 139.611C221.809 140.694 222.305 142.018 222.898 142.931C223.577 144.001 225.991 145.521 225.997 145.521Z'
fill='#263238'
/>
</svg>